<svg viewBox="0 0 300 300" fill="none" xmlns="http://www.w3.org/2000/svg">
<g filter="url(#filter0_f_102_53)">
<path d="M172.914 83.2005C154.655 107.992 151.489 141.826 167.596 169.724C183.703 197.623 214.587 211.798 245.187 208.381C238.681 217.215 230.258 224.9 220.108 230.76C181.473 253.066 132.443 240.473 110.596 202.633C88.749 164.794 102.358 116.036 140.993 93.7298C151.143 87.8697 162.011 84.4183 172.914 83.2005Z" fill="#FFEE94"/>
</g>
<g filter="url(#filter1_i_102_53)">
<path d="M171.212 93.6474C154.544 116.278 151.654 147.162 166.357 172.629C181.06 198.096 209.252 211.035 237.185 207.916C231.245 215.98 223.557 222.996 214.292 228.345C179.024 248.707 134.268 237.211 114.325 202.67C94.3828 168.128 106.806 123.62 142.073 103.259C151.338 97.9096 161.259 94.759 171.212 93.6474Z" fill="url(#paint0_linear_102_53)"/>
</g>
<g filter="url(#filter2_b_102_53)">
<g filter="url(#filter3_i_102_53)">
<path d="M160.403 215.863C160.731 214.004 160.902 212.091 160.902 210.139C160.902 191.876 145.959 177.072 127.526 177.072C113.822 177.072 102.048 185.254 96.9078 196.956C92.7437 193.394 87.3402 191.243 81.4354 191.243C68.269 191.243 57.5955 201.936 57.5955 215.125C57.5955 215.86 57.6286 216.587 57.6934 217.304C51.3606 220.377 47 226.826 47 234.284C47 244.719 55.5388 253.179 66.0719 253.179H156.134C166.667 253.179 175.206 244.719 175.206 234.284C175.206 225.302 168.881 217.784 160.403 215.863Z" fill="url(#paint1_linear_102_53)"/>
</g>
</g>
<g filter="url(#filter4_b_102_53)">
<g filter="url(#filter5_i_102_53)">
<path d="M239.075 101.498C239.402 99.639 239.573 97.7263 239.573 95.7741C239.573 77.5114 224.63 62.7065 206.197 62.7065C192.494 62.7065 180.72 70.8887 175.579 82.591C171.415 79.029 166.012 76.8784 160.107 76.8784C146.941 76.8784 136.267 87.5707 136.267 100.76C136.267 101.495 136.3 102.222 136.365 102.939C130.032 106.012 125.672 112.461 125.672 119.919C125.672 130.355 134.21 138.814 144.743 138.814H234.805C245.338 138.814 253.877 130.355 253.877 119.919C253.877 110.937 247.552 103.419 239.075 101.498Z" fill="url(#paint2_linear_102_53)"/>
</g>
</g>
<g filter="url(#filter6_di_102_53)">
<path d="M188.874 32.3904C181.214 35.7921 178.224 38.6667 175.484 45.7808C173.302 38.8865 170.618 35.8113 162.094 32.3904C170.863 29.5334 173.243 26.226 175.484 19C178.238 25.6598 179.94 29.2945 188.874 32.3904Z" fill="url(#paint3_linear_102_53)"/>
</g>
<g filter="url(#filter7_di_102_53)">
<path d="M110.931 95.7646C103.271 99.1663 100.281 102.041 97.5409 109.155C95.3585 102.261 92.6749 99.1856 84.1505 95.7646C92.9195 92.9076 95.2994 89.6003 97.5409 82.3742C100.295 89.0341 101.997 92.6688 110.931 95.7646Z" fill="url(#paint4_linear_102_53)"/>
</g>
<g filter="url(#filter8_di_102_53)">
<path d="M234.038 169.337C226.378 172.739 223.388 175.614 220.647 182.728C218.465 175.833 215.781 172.758 207.257 169.337C216.026 166.48 218.406 163.173 220.647 155.947C223.402 162.607 225.103 166.242 234.038 169.337Z" fill="url(#paint5_linear_102_53)"/>
</g>
<defs>
<filter id="filter0_f_102_53" x="47.1721" y="30.2004" width="251.015" height="264.591" filterUnits="userSpaceOnUse" color-interpolation-filters="sRGB">
<feFlood flood-opacity="0" result="BackgroundImageFix"/>
<feBlend mode="normal" in="SourceGraphic" in2="BackgroundImageFix" result="shape"/>
<feGaussianBlur stdDeviation="26.5" result="effect1_foregroundBlur_102_53"/>
</filter>
<filter id="filter1_i_102_53" x="104.81" y="93.6475" width="132.374" height="148.767" filterUnits="userSpaceOnUse" color-interpolation-filters="sRGB">
<feFlood flood-opacity="0" result="BackgroundImageFix"/>
<feBlend mode="normal" in="SourceGraphic" in2="BackgroundImageFix" result="shape"/>
<feColorMatrix in="SourceAlpha" type="matrix" values="0 0 0 0 0 0 0 0 0 0 0 0 0 0 0 0 0 0 127 0" result="hardAlpha"/>
<feOffset dy="4"/>
<feGaussianBlur stdDeviation="4"/>
<feComposite in2="hardAlpha" operator="arithmetic" k2="-1" k3="1"/>
<feColorMatrix type="matrix" values="0 0 0 0 1 0 0 0 0 1 0 0 0 0 1 0 0 0 0.55 0"/>
<feBlend mode="normal" in2="shape" result="effect1_innerShadow_102_53"/>
</filter>
<filter id="filter2_b_102_53" x="20" y="150.072" width="182.206" height="130.108" filterUnits="userSpaceOnUse" color-interpolation-filters="sRGB">
<feFlood flood-opacity="0" result="BackgroundImageFix"/>
<feGaussianBlur in="BackgroundImageFix" stdDeviation="13.5"/>
<feComposite in2="SourceAlpha" operator="in" result="effect1_backgroundBlur_102_53"/>
<feBlend mode="normal" in="SourceGraphic" in2="effect1_backgroundBlur_102_53" result="shape"/>
</filter>
<filter id="filter3_i_102_53" x="47" y="177.072" width="128.206" height="86.1079" filterUnits="userSpaceOnUse" color-interpolation-filters="sRGB">
<feFlood flood-opacity="0" result="BackgroundImageFix"/>
<feBlend mode="normal" in="SourceGraphic" in2="BackgroundImageFix" result="shape"/>
<feColorMatrix in="SourceAlpha" type="matrix" values="0 0 0 0 0 0 0 0 0 0 0 0 0 0 0 0 0 0 127 0" result="hardAlpha"/>
<feOffset dy="11"/>
<feGaussianBlur stdDeviation="5"/>
<feComposite in2="hardAlpha" operator="arithmetic" k2="-1" k3="1"/>
<feColorMatrix type="matrix" values="0 0 0 0 1 0 0 0 0 1 0 0 0 0 1 0 0 0 1 0"/>
<feBlend mode="normal" in2="shape" result="effect1_innerShadow_102_53"/>
</filter>
<filter id="filter4_b_102_53" x="98.6716" y="35.7065" width="182.206" height="130.108" filterUnits="userSpaceOnUse" color-interpolation-filters="sRGB">
<feFlood flood-opacity="0" result="BackgroundImageFix"/>
<feGaussianBlur in="BackgroundImageFix" stdDeviation="13.5"/>
<feComposite in2="SourceAlpha" operator="in" result="effect1_backgroundBlur_102_53"/>
<feBlend mode="normal" in="SourceGraphic" in2="effect1_backgroundBlur_102_53" result="shape"/>
</filter>
<filter id="filter5_i_102_53" x="125.672" y="62.7065" width="128.206" height="86.1079" filterUnits="userSpaceOnUse" color-interpolation-filters="sRGB">
<feFlood flood-opacity="0" result="BackgroundImageFix"/>
<feBlend mode="normal" in="SourceGraphic" in2="BackgroundImageFix" result="shape"/>
<feColorMatrix in="SourceAlpha" type="matrix" values="0 0 0 0 0 0 0 0 0 0 0 0 0 0 0 0 0 0 127 0" result="hardAlpha"/>
<feOffset dy="11"/>
<feGaussianBlur stdDeviation="5"/>
<feComposite in2="hardAlpha" operator="arithmetic" k2="-1" k3="1"/>
<feColorMatrix type="matrix" values="0 0 0 0 1 0 0 0 0 1 0 0 0 0 1 0 0 0 1 0"/>
<feBlend mode="normal" in2="shape" result="effect1_innerShadow_102_53"/>
</filter>
<filter id="filter6_di_102_53" x="153.326" y="19" width="44.3157" height="46.5482" filterUnits="userSpaceOnUse" color-interpolation-filters="sRGB">
<feFlood flood-opacity="0" result="BackgroundImageFix"/>
<feColorMatrix in="SourceAlpha" type="matrix" values="0 0 0 0 0 0 0 0 0 0 0 0 0 0 0 0 0 0 127 0" result="hardAlpha"/>
<feOffset dy="11"/>
<feGaussianBlur stdDeviation="4.38372"/>
<feColorMatrix type="matrix" values="0 0 0 0 0.285052 0 0 0 0 0.179688 0 0 0 0 0.9375 0 0 0 1 0"/>
<feBlend mode="normal" in2="BackgroundImageFix" result="effect1_dropShadow_102_53"/>
<feBlend mode="normal" in="SourceGraphic" in2="effect1_dropShadow_102_53" result="shape"/>
<feColorMatrix in="SourceAlpha" type="matrix" values="0 0 0 0 0 0 0 0 0 0 0 0 0 0 0 0 0 0 127 0" result="hardAlpha"/>
<feOffset dy="4"/>
<feGaussianBlur stdDeviation="2"/>
<feComposite in2="hardAlpha" operator="arithmetic" k2="-1" k3="1"/>
<feColorMatrix type="matrix" values="0 0 0 0 1 0 0 0 0 1 0 0 0 0 1 0 0 0 0.44 0"/>
<feBlend mode="normal" in2="shape" result="effect2_innerShadow_102_53"/>
</filter>
<filter id="filter7_di_102_53" x="75.3831" y="82.3743" width="44.3157" height="46.5482" filterUnits="userSpaceOnUse" color-interpolation-filters="sRGB">
<feFlood flood-opacity="0" result="BackgroundImageFix"/>
<feColorMatrix in="SourceAlpha" type="matrix" values="0 0 0 0 0 0 0 0 0 0 0 0 0 0 0 0 0 0 127 0" result="hardAlpha"/>
<feOffset dy="11"/>
<feGaussianBlur stdDeviation="4.38372"/>
<feColorMatrix type="matrix" values="0 0 0 0 0.285052 0 0 0 0 0.179688 0 0 0 0 0.9375 0 0 0 0.28 0"/>
<feBlend mode="normal" in2="BackgroundImageFix" result="effect1_dropShadow_102_53"/>
<feBlend mode="normal" in="SourceGraphic" in2="effect1_dropShadow_102_53" result="shape"/>
<feColorMatrix in="SourceAlpha" type="matrix" values="0 0 0 0 0 0 0 0 0 0 0 0 0 0 0 0 0 0 127 0" result="hardAlpha"/>
<feOffset dy="4"/>
<feGaussianBlur stdDeviation="2"/>
<feComposite in2="hardAlpha" operator="arithmetic" k2="-1" k3="1"/>
<feColorMatrix type="matrix" values="0 0 0 0 1 0 0 0 0 1 0 0 0 0 1 0 0 0 0.44 0"/>
<feBlend mode="normal" in2="shape" result="effect2_innerShadow_102_53"/>
</filter>
<filter id="filter8_di_102_53" x="198.489" y="155.947" width="44.3157" height="46.5482" filterUnits="userSpaceOnUse" color-interpolation-filters="sRGB">
<feFlood flood-opacity="0" result="BackgroundImageFix"/>
<feColorMatrix in="SourceAlpha" type="matrix" values="0 0 0 0 0 0 0 0 0 0 0 0 0 0 0 0 0 0 127 0" result="hardAlpha"/>
<feOffset dy="11"/>
<feGaussianBlur stdDeviation="4.38372"/>
<feColorMatrix type="matrix" values="0 0 0 0 0.285052 0 0 0 0 0.179688 0 0 0 0 0.9375 0 0 0 0.8 0"/>
<feBlend mode="normal" in2="BackgroundImageFix" result="effect1_dropShadow_102_53"/>
<feBlend mode="normal" in="SourceGraphic" in2="effect1_dropShadow_102_53" result="shape"/>
<feColorMatrix in="SourceAlpha" type="matrix" values="0 0 0 0 0 0 0 0 0 0 0 0 0 0 0 0 0 0 127 0" result="hardAlpha"/>
<feOffset dy="4"/>
<feGaussianBlur stdDeviation="2"/>
<feComposite in2="hardAlpha" operator="arithmetic" k2="-1" k3="1"/>
<feColorMatrix type="matrix" values="0 0 0 0 1 0 0 0 0 1 0 0 0 0 1 0 0 0 0.44 0"/>
<feBlend mode="normal" in2="shape" result="effect2_innerShadow_102_53"/>
</filter>
<linearGradient id="paint0_linear_102_53" x1="174.841" y1="81.6458" x2="148.38" y2="241.867" gradientUnits="userSpaceOnUse">
<stop stop-color="#FFEE94"/>
<stop offset="1" stop-color="#FF9900"/>
</linearGradient>
<linearGradient id="paint1_linear_102_53" x1="55.1544" y1="246.384" x2="184.492" y2="149.664" gradientUnits="userSpaceOnUse">
<stop stop-color="white"/>
<stop offset="1" stop-color="white" stop-opacity="0.58"/>
</linearGradient>
<linearGradient id="paint2_linear_102_53" x1="133.826" y1="132.019" x2="263.164" y2="35.2986" gradientUnits="userSpaceOnUse">
<stop stop-color="white"/>
<stop offset="1" stop-color="white" stop-opacity="0.58"/>
</linearGradient>
<linearGradient id="paint3_linear_102_53" x1="171.61" y1="47.0356" x2="184.213" y2="23.3725" gradientUnits="userSpaceOnUse">
<stop stop-color="#FF9900"/>
<stop offset="1" stop-color="#FFEE94"/>
</linearGradient>
<linearGradient id="paint4_linear_102_53" x1="93.6672" y1="110.41" x2="106.27" y2="86.7468" gradientUnits="userSpaceOnUse">
<stop stop-color="#FF9900"/>
<stop offset="1" stop-color="#FFEE94"/>
</linearGradient>
<linearGradient id="paint5_linear_102_53" x1="216.774" y1="183.983" x2="229.377" y2="160.32" gradientUnits="userSpaceOnUse">
<stop stop-color="#FF9900"/>
<stop offset="1" stop-color="#FFEE94"/>
</linearGradient>
</defs>
</svg>
