<svg viewBox="0 0 300 300" fill="none" xmlns="http://www.w3.org/2000/svg">
<g filter="url(#filter0_f_102_64)">
<path d="M164.597 58.8006C144.237 86.4445 140.706 124.171 158.667 155.28C176.628 186.388 211.065 202.194 245.185 198.384C237.93 208.234 228.539 216.804 217.221 223.338C174.141 248.211 119.469 234.169 95.1087 191.975C70.7481 149.781 85.9233 95.4137 129.003 70.5413C140.321 64.007 152.439 60.1585 164.597 58.8006Z" fill="#FFEE94"/>
</g>
<g filter="url(#filter1_i_102_64)">
<path d="M162.699 70.4493C144.113 95.6835 140.89 130.121 157.286 158.519C173.681 186.916 205.116 201.344 236.262 197.865C229.64 206.857 221.067 214.68 210.735 220.645C171.41 243.349 121.504 230.531 99.2673 192.015C77.0302 153.5 90.8827 103.871 130.208 81.1666C140.539 75.2019 151.6 71.6888 162.699 70.4493Z" fill="url(#paint0_linear_102_64)"/>
</g>
<defs>
<filter id="filter0_f_102_64" x="30.4855" y="5.80054" width="267.7" height="282.838" filterUnits="userSpaceOnUse" color-interpolation-filters="sRGB">
<feFlood flood-opacity="0" result="BackgroundImageFix"/>
<feBlend mode="normal" in="SourceGraphic" in2="BackgroundImageFix" result="shape"/>
<feGaussianBlur stdDeviation="26.5" result="effect1_foregroundBlur_102_64"/>
</filter>
<filter id="filter1_i_102_64" x="88.6573" y="70.4492" width="147.605" height="165.423" filterUnits="userSpaceOnUse" color-interpolation-filters="sRGB">
<feFlood flood-opacity="0" result="BackgroundImageFix"/>
<feBlend mode="normal" in="SourceGraphic" in2="BackgroundImageFix" result="shape"/>
<feColorMatrix in="SourceAlpha" type="matrix" values="0 0 0 0 0 0 0 0 0 0 0 0 0 0 0 0 0 0 127 0" result="hardAlpha"/>
<feOffset dy="4"/>
<feGaussianBlur stdDeviation="4"/>
<feComposite in2="hardAlpha" operator="arithmetic" k2="-1" k3="1"/>
<feColorMatrix type="matrix" values="0 0 0 0 1 0 0 0 0 1 0 0 0 0 1 0 0 0 0.55 0"/>
<feBlend mode="normal" in2="shape" result="effect1_innerShadow_102_64"/>
</filter>
<linearGradient id="paint0_linear_102_64" x1="166.746" y1="57.0668" x2="137.241" y2="235.722" gradientUnits="userSpaceOnUse">
<stop stop-color="#FFEE94"/>
<stop offset="1" stop-color="#FF9900"/>
</linearGradient>
</defs>
</svg>
