<svg viewBox="0 0 1440 1024" fill="none" xmlns="http://www.w3.org/2000/svg" preserveAspectRatio="xMidYMid slice">
<g clip-path="url(#clip0_52_230)">
<rect width="1440" height="1024" fill="url(#paint0_radial_52_230)"/>
<path d="M227.5 508C99.5 499.162 21 559.5 -43 625V1059H1477V470.997C1177 380 1150 677.979 911.5 724.5C527 799.5 437.5 522.5 227.5 508Z" fill="url(#paint1_linear_52_230)" fill-opacity="0.1"/>
<path d="M1090.5 510C1239.5 510 1366 572.5 1494.5 528.421V1054.51H-98V355C-25.3684 445.813 84 709.5 388 697C703.775 684.016 853.082 510 1090.5 510Z" fill="#82FBB2" fill-opacity="0.1"/>
<path d="M559.5 619C335 585.588 224 753.645 -25 695V1046H1502V700.5C1390 637.839 1260.03 780.5 1044.5 780.5C828.974 780.5 784 652.412 559.5 619Z" fill="url(#paint2_linear_52_230)" fill-opacity="0.2"/>
</g>
<defs>
<radialGradient id="paint0_radial_52_230" cx="0" cy="0" r="1" gradientUnits="userSpaceOnUse" gradientTransform="translate(720 -44) rotate(90) scale(1154 1622.81)">
<stop stop-color="#AAF1ED"/>
<stop offset="0.678602" stop-color="#223F61"/>
<stop offset="0.927349" stop-color="#1E0C34"/>
</radialGradient>
<linearGradient id="paint1_linear_52_230" x1="717" y1="453.821" x2="717" y2="1059" gradientUnits="userSpaceOnUse">
<stop offset="0.359375" stop-color="#A288D9"/>
<stop offset="0.859375" stop-color="white" stop-opacity="0"/>
</linearGradient>
<linearGradient id="paint2_linear_52_230" x1="720" y1="553" x2="738.5" y2="1046" gradientUnits="userSpaceOnUse">
<stop offset="0.234375" stop-color="#FFEACA"/>
<stop offset="0.995692" stop-color="#FBE4C1" stop-opacity="0"/>
</linearGradient>
<clipPath id="clip0_52_230">
<rect width="1440" height="1024" fill="#c73030"/>
</clipPath>
</defs>
</svg>
